#N canvas 37 -2 1414 735 10;
#X obj 66 331 linear_panner_4ch~;
#X obj 644 58 hradio 15 1 0 8 empty empty empty 0 -8 0 10 -262144 -1
-1 1;
#X obj 66 144 loadbang;
#X msg 67 229 loop 1;
#X msg 122 228 start;
#X obj 67 376 dac~ 1 2 3 4;
#X obj 269 266 hsl 128 15 0 127 0 0 empty empty empty -2 -8 0 10 -262144
-1 -1 0 1;
#X obj 67 261 play~ drone_1;
#X obj 266 203 line;
#X obj 294 234 s lighting_pan;
#X msg 52 642 disconnect;
#X obj 44 669 netsend -u -b;
#X msg 53 618 connect localhost 5000;
#X obj 31 509 oscformat pan;
#X obj 31 479 r lighting_pan;
#X obj 66 180 t b b;
#X obj 783 631 netreceive -u -b;
#X msg 783 604 listen 5000;
#X obj 783 657 oscparse;
#X obj 783 703 print;
#X obj 31 533 list prepend send;
#X obj 31 555 list trim;
#X obj 783 679 list trim;
#X text 779 581 osc receiver for testing;
#N canvas 161 151 726 424 load_drone_chase 0;
#X obj 20 144 soundfiler;
#X obj 20 168 outlet;
#X obj 476 -64 table drone_1;
#X msg 20 -37 read -resize 01dronechase.wav drone_1;
#X obj 12 -69 r load;
#X obj 144 -98 inlet;
#X msg 50 -11 read -resize 02dronechase.wav drone_1;
#X msg 87 15 read -resize 03dronechase.wav drone_1;
#X msg 124 41 read -resize 04dronechase.wav drone_1;
#X msg 157 65 read -resize 05dronechase.wav drone_1;
#X msg 189 91 read -resize 06dronechase.wav drone_1;
#X msg 215 117 read -resize 07dronechase.wav drone_1;
#X obj 144 -68 select 0 1 2 3 4 5 6 7;
#X msg 266 145 read -resize 01sparkchase.wav drone_1;
#X connect 0 0 1 0;
#X connect 3 0 0 0;
#X connect 4 0 3 0;
#X connect 5 0 12 0;
#X connect 6 0 0 0;
#X connect 7 0 0 0;
#X connect 8 0 0 0;
#X connect 9 0 0 0;
#X connect 10 0 0 0;
#X connect 11 0 0 0;
#X connect 12 0 3 0;
#X connect 12 1 6 0;
#X connect 12 2 7 0;
#X connect 12 3 8 0;
#X connect 12 4 9 0;
#X connect 12 5 10 0;
#X connect 12 6 11 0;
#X connect 12 7 13 0;
#X connect 13 0 0 0;
#X restore 644 111 pd load_drone_chase;
#X obj 69 294 *~;
#X obj 178 250 line;
#X obj 258 124 t f b;
#X msg 258 171 0 \, 127 \$1;
#X msg 356 172 0 \$1;
#X msg 258 37 10000;
#X obj 311 105 delay;
#X obj 313 75 t b f;
#X obj 371 118 t f b;
#X msg 371 38 10000;
#X obj 424 99 delay;
#X obj 426 69 t b f;
#X text 258 13 -->;
#X text 379 9 <--;
#X msg 195 210 0 1000;
#X msg 178 158 1 1000;
#N canvas 0 50 608 300 load_sparkle_hall 0;
#X obj 20 144 soundfiler;
#X msg 20 -37 read -resize 01sparkhallA.wav sound_a;
#X msg 50 -11 read -resize 01sparkhallA.wav sound_b;
#X msg 87 15 read -resize 01sparkhallA.wav sound_c;
#X msg 124 41 read -resize 01sparkhallA.wav sound_d;
#X obj 442 -32 table sound_a;
#X obj 441 -10 table sound_b;
#X obj 441 12 table sound_c;
#X obj 440 34 table sound_d;
#X obj 90 -100 loadbang;
#X obj 90 -68 bng 15 250 50 0 empty empty empty 17 7 0 10 -262144 -1
-1;
#X connect 1 0 0 0;
#X connect 2 0 0 0;
#X connect 3 0 0 0;
#X connect 4 0 0 0;
#X connect 9 0 10 0;
#X connect 10 0 1 0;
#X connect 10 0 2 0;
#X connect 10 0 3 0;
#X connect 10 0 4 0;
#X restore 710 197 pd load_sparkle_hall;
#X obj 661 483 dac~ 1 2 3 4;
#X obj 554 277 loadbang;
#X msg 555 362 loop 1;
#X obj 554 313 t b b;
#X msg 605 363 start;
#X obj 555 425 *~ 1;
#X obj 555 394 play~ sound_a;
#X msg 605 317 0;
#X obj 726 245 tgl 15 0 empty empty empty 17 7 0 10 -262144 -1 -1 0
1;
#X obj 653 278 loadbang;
#X msg 654 363 loop 1;
#X obj 653 314 t b b;
#X msg 704 364 start;
#X obj 654 426 *~ 1;
#X obj 654 395 play~ sound_a;
#X msg 704 318 0;
#X obj 746 277 loadbang;
#X msg 747 362 loop 1;
#X obj 746 313 t b b;
#X msg 797 363 start;
#X obj 747 425 *~ 1;
#X obj 747 394 play~ sound_a;
#X msg 797 317 0;
#X obj 845 278 loadbang;
#X msg 846 363 loop 1;
#X obj 845 314 t b b;
#X msg 896 364 start;
#X obj 846 426 *~ 1;
#X obj 846 395 play~ sound_a;
#X msg 896 318 0;
#X obj 757 249 s sparkle_hall;
#X obj 135 479 r sparkle_hall;
#X obj 1058 291 dac~ 1 2 3 4;
#X msg 998 158 start;
#X obj 998 229 *~ 1;
#N canvas 1099 418 785 491 load_rhythmic 1;
#X obj 546 161 soundfiler;
#X obj 90 -100 loadbang;
#X obj 90 -68 bng 15 250 50 0 empty empty empty 17 7 0 10 -262144 -1
-1;
#X obj 14 -143 table r_a;
#X obj 13 -121 table r_b;
#X obj 13 -99 table r_c;
#X obj 12 -77 table r_d;
#X msg 20 -37 read -resize 01cutA.wav r_a;
#X msg 50 -11 read -resize 01cutB.wav r_b;
#X msg 87 15 read -resize 01cutC.wav r_c;
#X msg 124 41 read -resize 01cutD.wav r_d;
#X obj 352 -67 bng 15 250 50 0 empty empty empty 17 7 0 10 -262144
-1 -1;
#X msg 282 -36 read -resize 02cutA.wav r_a;
#X msg 312 -10 read -resize 02cutB.wav r_b;
#X msg 349 16 read -resize 02cutC.wav r_c;
#X msg 386 42 read -resize 02cutD.wav r_d;
#X obj 545 192 / 44.1;
#X obj 547 288 s rhythm_length;
#X obj 580 -91 bng 15 250 50 0 empty empty empty 17 7 0 10 -262144
-1 -1;
#X obj 848 -84 bng 15 250 50 0 empty empty empty 17 7 0 10 -262144
-1 -1;
#X msg 543 -47 read -resize 01hitsA.wav r_a;
#X msg 573 -21 read -resize 01hitsB.wav r_b;
#X msg 610 5 read -resize 01hitsC.wav r_c;
#X msg 647 31 read -resize 01hitsD.wav r_d;
#X msg 805 -46 read -resize 02hitsA.wav r_a;
#X msg 834 -20 read -resize 02hitsB.wav r_b;
#X msg 872 6 read -resize 02hitsC.wav r_c;
#X msg 909 32 read -resize 02hitsD.wav r_d;
#X connect 0 0 16 0;
#X connect 1 0 2 0;
#X connect 2 0 7 0;
#X connect 2 0 8 0;
#X connect 2 0 9 0;
#X connect 2 0 10 0;
#X connect 7 0 0 0;
#X connect 8 0 0 0;
#X connect 9 0 0 0;
#X connect 10 0 0 0;
#X connect 11 0 12 0;
#X connect 11 0 13 0;
#X connect 11 0 14 0;
#X connect 11 0 15 0;
#X connect 12 0 0 0;
#X connect 13 0 0 0;
#X connect 14 0 0 0;
#X connect 15 0 0 0;
#X connect 16 0 17 0;
#X connect 18 0 20 0;
#X connect 18 0 21 0;
#X connect 18 0 22 0;
#X connect 18 0 23 0;
#X connect 19 0 24 0;
#X connect 19 0 25 0;
#X connect 19 0 26 0;
#X connect 19 0 27 0;
#X connect 20 0 0 0;
#X connect 21 0 0 0;
#X connect 22 0 0 0;
#X connect 23 0 0 0;
#X connect 24 0 0 0;
#X connect 25 0 0 0;
#X connect 26 0 0 0;
#X connect 27 0 0 0;
#X restore 1167 -23 pd load_rhythmic;
#X obj 998 198 play~ r_a;
#X obj 1027 78 select 0 1 2 3;
#X obj 1027 51 counter 0 3;
#X msg 1062 158 start;
#X obj 1062 229 *~ 1;
#X obj 1062 198 play~ r_b;
#X msg 1126 157 start;
#X obj 1126 228 *~ 1;
#X obj 1126 197 play~ r_a;
#X msg 1190 157 start;
#X obj 1190 228 *~ 1;
#X obj 1190 197 play~ r_b;
#X obj 1026 -6 tgl 15 0 empty empty empty 17 7 0 10 -262144 -1 -1 1
1;
#X obj 1061 -23 r rhythm_length;
#X obj 1027 21 metro;
#X obj 954 80 s rhythm;
#X obj 243 481 r rhythm;
#X connect 0 0 5 0;
#X connect 0 1 5 1;
#X connect 0 2 5 2;
#X connect 0 3 5 3;
#X connect 1 0 24 0;
#X connect 2 0 15 0;
#X connect 3 0 7 0;
#X connect 4 0 7 0;
#X connect 6 0 0 1;
#X connect 7 0 25 0;
#X connect 8 0 6 0;
#X connect 8 0 9 0;
#X connect 10 0 11 0;
#X connect 12 0 11 0;
#X connect 13 0 20 0;
#X connect 14 0 13 0;
#X connect 15 0 4 0;
#X connect 15 1 3 0;
#X connect 16 0 18 0;
#X connect 17 0 16 0;
#X connect 18 0 22 0;
#X connect 20 0 21 0;
#X connect 21 0 11 0;
#X connect 22 0 19 0;
#X connect 25 0 0 0;
#X connect 26 0 25 1;
#X connect 27 0 28 0;
#X connect 27 1 40 0;
#X connect 28 0 8 0;
#X connect 29 0 8 0;
#X connect 30 0 27 0;
#X connect 30 0 32 0;
#X connect 31 0 39 0;
#X connect 32 0 31 0;
#X connect 32 1 31 1;
#X connect 33 0 29 0;
#X connect 33 1 40 0;
#X connect 34 0 33 0;
#X connect 34 0 36 0;
#X connect 35 0 39 0;
#X connect 36 0 35 0;
#X connect 36 1 35 1;
#X connect 39 0 26 0;
#X connect 40 0 26 0;
#X connect 43 0 45 0;
#X connect 43 0 49 0;
#X connect 44 0 48 0;
#X connect 45 0 46 0;
#X connect 45 1 44 0;
#X connect 46 0 48 0;
#X connect 47 0 42 0;
#X connect 48 0 47 0;
#X connect 49 0 47 1;
#X connect 50 0 47 1;
#X connect 50 0 55 1;
#X connect 50 0 62 1;
#X connect 50 0 69 1;
#X connect 50 0 72 0;
#X connect 51 0 53 0;
#X connect 51 0 57 0;
#X connect 52 0 56 0;
#X connect 53 0 54 0;
#X connect 53 1 52 0;
#X connect 54 0 56 0;
#X connect 55 0 42 1;
#X connect 56 0 55 0;
#X connect 57 0 55 1;
#X connect 58 0 60 0;
#X connect 58 0 64 0;
#X connect 59 0 63 0;
#X connect 60 0 61 0;
#X connect 60 1 59 0;
#X connect 61 0 63 0;
#X connect 62 0 42 2;
#X connect 63 0 62 0;
#X connect 64 0 62 1;
#X connect 65 0 67 0;
#X connect 65 0 71 0;
#X connect 66 0 70 0;
#X connect 67 0 68 0;
#X connect 67 1 66 0;
#X connect 68 0 70 0;
#X connect 69 0 42 3;
#X connect 70 0 69 0;
#X connect 71 0 69 1;
#X connect 73 0 13 0;
#X connect 75 0 78 0;
#X connect 76 0 74 0;
#X connect 78 0 76 0;
#X connect 79 0 75 0;
#X connect 79 1 81 0;
#X connect 79 2 84 0;
#X connect 79 3 87 0;
#X connect 80 0 79 0;
#X connect 80 0 93 0;
#X connect 81 0 83 0;
#X connect 82 0 74 1;
#X connect 83 0 82 0;
#X connect 84 0 86 0;
#X connect 85 0 74 2;
#X connect 86 0 85 0;
#X connect 87 0 89 0;
#X connect 88 0 74 3;
#X connect 89 0 88 0;
#X connect 90 0 92 0;
#X connect 91 0 92 1;
#X connect 92 0 80 0;
#X connect 94 0 13 0;
